<?xml version="1.0" encoding="utf-8"?>
<!-- Svg Vector Icons : http://www.sfont.cn -->
<!DOCTYPE svg PUBLIC "-//W3C//DTD SVG 1.1//EN" "http://www.w3.org/Graphics/SVG/1.1/DTD/svg11.dtd">
<svg version="1.1" xmlns="http://www.w3.org/2000/svg" xmlns:xlink="http://www.w3.org/1999/xlink" x="0px" y="0px" viewBox="0 0 1000 1000" enable-background="new 0 0 1000 1000" xml:space="preserve">
<metadata> Svg Vector Icons : http://www.sfont.cn </metadata>
<g><path d="M690.6,990H309.4c-105.2,0-190.6-85.3-190.6-190.6V690.6c0-92.5,65.9-169.5,153.2-186.9c-44.6-52.3-71.5-120.1-71.5-194.2C200.6,144.1,334.6,10,500,10s299.4,134.1,299.4,299.4c0,74.1-26.9,141.9-71.5,194.2c87.4,17.4,153.2,94.4,153.2,186.9v108.9C881.1,904.7,795.8,990,690.6,990z M745,309.4c0-135.3-109.7-245-245-245s-245,109.7-245,245c0,135.3,109.7,245,245,245S745,444.8,745,309.4z M826.7,704.2c0-82.7-67-149.7-149.7-149.7h-4.8c-48.7,34.3-108.1,54.4-172.2,54.4c-64.1,0-123.5-20.1-172.2-54.4h-4.8c-82.7,0-149.7,67-149.7,149.7v81.7c0,82.7,67,149.7,149.7,149.7h353.9c82.7,0,149.7-67,149.7-149.7V704.2z"/></g>
</svg>