<?xml version="1.0" encoding="utf-8"?>
<!-- Svg Vector Icons : http://www.sfont.cn -->
<!DOCTYPE svg PUBLIC "-//W3C//DTD SVG 1.1//EN" "http://www.w3.org/Graphics/SVG/1.1/DTD/svg11.dtd">
<svg version="1.1" xmlns="http://www.w3.org/2000/svg" xmlns:xlink="http://www.w3.org/1999/xlink" x="0px" y="0px" viewBox="0 0 1000 1000" enable-background="new 0 0 1000 1000" xml:space="preserve">
<metadata> Svg Vector Icons : http://www.sfont.cn </metadata>
<g><g transform="translate(0.000000,432.000000) scale(0.100000,-0.100000)"><path d="M3939,3444.5c-1017.4-88.1-1902.7-500.1-2615.5-1212.9C599.3,1509.3,193.1,616.4,112.6-418.3c-38.3-500.1,13.4-1257,118.8-1745.6c126.5-584.4,337.2-981,933.1-1757.1c159-205,366-482.8,461.8-615.1c279.8-383.2,298.9-381.3,674.5,61.3c293.2,348.7,477.1,469.4,709,463.7c141.8-1.9,285.5-42.2,766.4-212.7c498.2-178.2,737.7-231.8,1067.3-245.3c323.8-13.4,496.3,9.6,747.3,99.6c237.6,84.3,459.9,220.4,636.2,389l145.6,138l383.2-95.8c210.8-51.7,869.9-224.2,1465.8-383.2c595.9-159,1099.8-291.3,1119-293.2c34.5-3.8,61.3,97.7,298.9,1088.3L9900-2434l-1682.3,9.6l-1682.3,9.6l-122.6,362.1c-162.9,475.2-178.2,542.3-137.9,620.8c32.6,65.1,143.7,138,279.7,185.9c143.7,51.7,333.4,84.3,804.8,143.7c684.1,86.2,889.1,139.9,994.5,260.6c57.5,65.2,59.4,72.8,59.4,254.8c0,262.5-47.9,615.1-126.5,921.7c-390.9,1529-1640.2,2718.9-3188.4,3033.2C4726.6,3444.5,4274.4,3473.3,3939,3444.5z M4877.9,3047.9c436.9-78.6,751.1-185.9,1138.2-387.1c1151.6-594,1927.6-1764.7,2031.1-3054.2c11.5-161,9.6-205-11.5-222.3c-38.3-32.6-295.1-78.5-735.8-132.2c-760.7-92-1011.7-166.7-1226.3-366c-116.9-111.1-172.5-228-174.4-369.8c-1.9-147.5,7.7-187.8,157.1-636.1c145.6-433,170.5-574.8,178.2-965.7l3.8-231.9l-70.9-143.7c-166.7-337.2-571-590.1-1044.3-651.5c-325.7-42.1-678.3,26.8-1327.9,260.6c-582.5,208.8-820.1,245.3-1069.2,160.9c-224.2-76.6-490.5-287.4-728.1-580.6c-32.6-42.1-63.2-72.8-67.1-67.1c-126.5,147.5-919.7,1230.1-990.6,1350.8c-239.5,406.2-358.3,774.1-435,1345.1c-47.9,364.1-47.9,1283.8,1.9,1546.3c115,628.5,346.8,1176.5,697.5,1647.8c145.6,197.4,471.4,538.4,655.3,689.8c546.1,446.4,1245.5,743.4,1960.2,833.5C4031,3099.6,4676.7,3084.3,4877.9,3047.9z M8240.7-2777c0-15.3-272.1-1074.9-279.7-1086.4c-3.8-7.7-168.6,28.7-366,80.5c-199.3,51.7-505.8,130.3-686,174.4c-178.2,44.1-327.6,82.4-329.6,82.4c-1.9,1.9,7.7,109.2,23,241.4c17.2,141.8,23,293.2,17.2,377.5l-13.4,138h818.2C7872.8-2769.3,8240.7-2773.2,8240.7-2777z M9442.1-2811.5c-5.7-24.9-82.4-341.1-168.6-705.1c-86.2-364.1-159.1-663-161-666.8c-5.7-5.7-777.9,203.1-791.3,216.5c-9.6,7.7,249.1,1053.9,285.5,1155.4c15.3,42.2,19.2,42.2,431.1,42.2h413.9L9442.1-2811.5z"/><path d="M4843.4-2160c-224.2-28.7-444.5-195.4-546.1-413.9c-44.1-93.9-51.7-134.1-51.7-291.3c0-168.6,5.7-193.5,63.2-310.4c78.6-159,229.9-302.7,383.2-362.1c151.4-59.4,373.6-59.4,526.9,0c155.2,61.3,318.1,216.5,389,369.8c49.8,107.3,55.6,141.8,55.6,302.7c0,157.1-7.7,197.4-51.7,291.3C5473.8-2278.8,5174.9-2117.9,4843.4-2160z M5061.9-2524.1c95.8-32.6,159-86.2,208.9-172.5c61.3-109.2,49.8-287.4-26.8-389c-157.1-205-490.5-178.2-607.4,51.7c-30.7,61.3-38.3,103.5-32.6,189.7c9.6,141.8,70.9,231.9,195.4,295.1C4904.7-2495.3,4964.1-2489.6,5061.9-2524.1z"/></g></g>
</svg>